<svg id="Capa_1" enable-background="new 0 0 497 497" height="512" viewBox="0 0 497 497" width="512" xmlns="http://www.w3.org/2000/svg"><g><path d="m248 497c-33.381 0-63.65-27.509-85.229-77.46-19.293-44.657-30.159-103.318-30.746-165.698-.017-1.777-4.025-.558-4.025-2.341 0-1.428 4.005-5.853 4.016-7.277.473-62.777 11.352-121.852 30.755-166.763 21.579-49.952 51.848-77.461 85.229-77.461s63.65 27.509 85.229 77.46c19.157 44.343 30.005 102.493 30.732 164.381.026 2.215 11.046 7.517 11.039 8.659-.022 3.627-11.089 8.672-11.18 12.272-1.492 59.033-12.221 114.249-30.591 156.768-21.579 49.951-51.848 77.46-85.229 77.46zm0-467.358c-40.635 0-85.911 89.882-85.911 218.858s45.276 218.858 85.911 218.858 85.911-89.882 85.911-218.858-45.276-218.858-85.911-218.858z" fill="#f5de46"/><g fill="#f3d332"><path d="m175.63 133.24c-8.16 31.79-13.26 69.64-13.53 111.75-6.37 7.16-12.45 14.36-18.21 21.54-4.11-4.62-8.06-9.22-11.87-13.8-.003-.47-3.017-.76-3.02-1.23-.006-.94 3-2.06 3-3 0-27.61 2.01-54.55 5.87-79.95 6.28-6.29 12.72-12.52 19.32-18.67 6.09-5.68 12.24-11.23 18.44-16.64z"/><path d="m342.75 394.34c-2.9 8.81-6.07 17.23-9.52 25.2-6.39 14.8-13.55 27.64-21.32 38.36-8.98-4.05-18.11-8.58-27.34-13.55 11.68-14.85 22.42-36.42 30.89-63.35 9.55 5.18 18.68 9.62 27.29 13.34z"/><path d="m209.95 54.57c-11.43 15.2-21.91 36.89-30.12 63.74-9.53-5.21-18.66-9.69-27.28-13.46 3.08-9.6 6.49-18.76 10.22-27.39 6.02-13.94 12.71-26.12 19.97-36.45 8.94 4.05 18.03 8.58 27.21 13.56z"/></g><path d="m454.035 442.348c-22.766 24.413-66.321 25.185-122.642 2.171-51.787-21.16-109.832-60.346-163.443-110.339-53.61-49.993-96.75-105.163-121.472-155.349-26.886-54.578-29.155-98.081-6.389-122.494s66.321-25.184 122.642-2.171c51.787 21.161 109.833 60.347 163.443 110.339 53.611 49.993 96.751 105.163 121.471 155.348 26.887 54.579 29.156 98.082 6.39 122.495zm-389.257-362.988c-27.714 29.718 16.27 132.64 123.693 232.814s213.162 136.87 240.876 107.152-16.271-132.641-123.693-232.814-213.163-136.871-240.876-107.152z" fill="#b3e59f"/><path d="m364 248.25 5 2.25s-5.029 4.029-5.053 5.746c-.372 27.281-2.71 53.829-6.867 78.774-4.71 4.64-9.51 9.24-14.39 13.79-7.94 7.4-15.97 14.57-24.07 21.49 8.76-31.59 14.46-69.63 15.21-112.21 6.79-7.49 13.26-15.02 19.4-22.54 3.72 4.25 10.77 12.7 10.77 12.7z" fill="#f3d332"/><path d="m292.87 391.29c-8.74 6.79-17.52 13.28-26.3 19.42-20.23-12.67-40.73-27.38-60.96-43.76 8.52-5.34 17.28-11.2 26.22-17.59 21.02 16.53 41.57 30.51 61.04 41.93z" fill="#95d6a4"/><path d="m211.72 444.72c-9.24 4.97-18.39 9.49-27.38 13.52-7.87-10.79-15.11-23.74-21.57-38.7-3.39-7.86-6.53-16.15-9.39-24.82 8.18-3.51 16.83-7.66 25.87-12.48.48-.25.96-.51 1.44-.78 8.51 26.94 19.31 48.49 31.03 63.26z" fill="#f3d332"/><path d="m371.93 211.25c-2.75 3.81-5.59 7.63-8.53 11.46-3.27 4.27-6.66 8.55-10.17 12.84 3.72 4.25 7.31 8.49 10.77 12.7 12.54 15.19 23.51 30.07 32.87 44.36 7-8.12 13.69-16.27 20.06-24.44-13.07-18.93-28.19-38.06-45-56.92z" fill="#95d6a4"/><path d="m343.58 105.23c-8.63 3.81-17.75 8.32-27.27 13.55-8.16-26.85-18.59-48.56-29.98-63.83 9.17-4.99 18.25-9.53 27.18-13.59 7.16 10.25 13.77 22.32 19.72 36.1 3.78 8.74 7.23 18.03 10.35 27.77z" fill="#f3d332"/><path d="m49.355 319.853c24.721-50.184 67.86-105.355 121.471-155.348s111.656-89.179 163.443-110.339c56.321-23.014 99.876-22.243 122.642 2.171 22.766 24.413 20.497 67.916-6.389 122.494-24.722 50.186-67.862 105.356-121.472 155.349-53.611 49.993-111.656 89.179-163.443 110.339-56.321 23.014-99.876 22.243-122.642-2.171s-20.497-67.916 6.39-122.495zm141.992-133.342c-107.423 100.174-151.406 203.096-123.693 232.815s133.453-6.978 240.876-107.152 151.406-203.096 123.692-232.814c-27.713-29.719-133.452 6.978-240.875 107.151z" fill="#5a86cc"/><path d="m143.77 235.55c-17.11 19.6-31.68 38.81-43.64 57.06-7-8.12-13.69-16.27-20.06-24.44 13.07-18.93 28.19-38.06 45-56.92 5.82 8.06 12.06 16.18 18.7 24.3z" fill="#4377c4"/><path d="m292.48 109.33c-19.35 11.56-39.71 25.62-60.52 42.16-8.86-6.41-17.54-12.31-25.99-17.7 20.03-16.39 40.35-31.14 60.44-43.9 8.71 6.16 17.41 12.65 26.07 19.44z" fill="#4377c4"/><circle cx="248.5" cy="250" fill="#e06c57" r="51"/><path d="m293.15 274.65c-8.68 15.71-25.42 26.35-44.65 26.35-28.17 0-51-22.83-51-51 0-19.23 10.64-35.97 26.35-44.65-4.05 7.3-6.35 15.71-6.35 24.65 0 28.17 22.83 51 51 51 8.94 0 17.35-2.3 24.65-6.35z" fill="#dd554e"/><path d="m291.03 133.79c-8.45 5.39-17.13 11.29-25.99 17.7-20.81-16.54-41.17-30.6-60.52-42.16 8.66-6.79 17.36-13.28 26.07-19.44 20.09 12.76 40.41 27.51 60.44 43.9z" fill="#b3e59f"/><path d="m99.77 209.87c-6.94 8.16-13.56 16.36-19.85 24.56 13.27 18.84 28.55 37.86 45.47 56.58 2.43-3.44 4.94-6.89 7.54-10.36 3.51-4.69 7.16-9.4 10.96-14.12-4.11-4.62-8.06-9.22-11.87-13.8-12.21-14.65-22.97-29.02-32.25-42.86z" fill="#b3e59f"/></g></svg>